<svg width="21" height="21" viewBox="0 0 21 21" fill="none" xmlns="http://www.w3.org/2000/svg">
<g clip-path="url(#clip0_1_798)">
<path d="M17.7188 6.83402V17.0625C17.7188 17.2365 17.6496 17.4035 17.5265 17.5265C17.4035 17.6496 17.2365 17.7188 17.0625 17.7188H3.9375C3.76345 17.7188 3.59653 17.6496 3.47346 17.5265C3.35039 17.4035 3.28125 17.2365 3.28125 17.0625V3.9375C3.28125 3.76345 3.35039 3.59653 3.47346 3.47346C3.59653 3.35039 3.76345 3.28125 3.9375 3.28125H14.166C14.3398 3.28133 14.5065 3.35036 14.6295 3.4732L17.5268 6.37055C17.6496 6.49352 17.7187 6.66021 17.7188 6.83402Z" stroke="#476CFF" stroke-width="1.2" stroke-linecap="round" stroke-linejoin="round"/>
<path d="M6.5625 17.7188V12.4688C6.5625 12.2947 6.63164 12.1278 6.75471 12.0047C6.87778 11.8816 7.0447 11.8125 7.21875 11.8125H13.7812C13.9553 11.8125 14.1222 11.8816 14.2453 12.0047C14.3684 12.1278 14.4375 12.2947 14.4375 12.4688V17.7188" stroke="#476CFF" stroke-width="1.2" stroke-linecap="round" stroke-linejoin="round"/>
<path d="M12.4688 5.90625H7.875" stroke="#476CFF" stroke-width="1.2" stroke-linecap="round" stroke-linejoin="round"/>
</g>
<defs>
<clipPath id="clip0_1_798">
<rect width="21" height="21" fill="white"/>
</clipPath>
</defs>
</svg>
